<svg xmlns="http://www.w3.org/2000/svg" xmlns:xlink="http://www.w3.org/1999/xlink" viewBox="0,0,255.99431,255.99431" width="64px" height="64px" fill-rule="nonzero"><defs><linearGradient x1="37.646" y1="14.5" x2="37.646" y2="56.878" gradientUnits="userSpaceOnUse" id="color-1"><stop offset="0" stop-color="#ffffff"></stop><stop offset="1" stop-color="#ffffff"></stop></linearGradient><linearGradient x1="32" y1="6.833" x2="32" y2="58.017" gradientUnits="userSpaceOnUse" id="color-2"><stop offset="0" stop-color="#ffffff"></stop><stop offset="1" stop-color="#ffffff"></stop></linearGradient></defs><g fill="none" fill-rule="nonzero" stroke="none" stroke-width="1" stroke-linecap="butt" stroke-linejoin="miter" stroke-miterlimit="10" stroke-dasharray="" stroke-dashoffset="0" font-family="none" font-weight="none" font-size="none" text-anchor="none" style="mix-blend-mode: normal"><g transform="scale(4,4)"><path d="M42,56v-18h5.358l0.934,-8h-6.292v-4.457c0,-2.097 -0.131,-3.527 2.877,-3.527l3.123,-0.002v-6.479c-1,-0.088 -2.487,-0.285 -5.136,-0.285c-5.531,0 -8.864,3.376 -8.864,9.576v5.174h-7v8h7v18z" fill="url(#color-1)"></path><path d="M50,57h-36c-3.859,0 -7,-3.141 -7,-7v-36c0,-3.859 3.141,-7 7,-7h36c3.859,0 7,3.141 7,7v36c0,3.859 -3.141,7 -7,7zM14,9c-2.757,0 -5,2.243 -5,5v36c0,2.757 2.243,5 5,5h36c2.757,0 5,-2.243 5,-5v-36c0,-2.757 -2.243,-5 -5,-5z" fill="url(#color-2)"></path></g></g></svg>