<svg xmlns="http://www.w3.org/2000/svg" xmlns:xlink="http://www.w3.org/1999/xlink" viewBox="0,0,255.99431,255.99431" width="64px" height="64px" fill-rule="nonzero"><defs><linearGradient x1="32" y1="9" x2="32" y2="55" gradientUnits="userSpaceOnUse" id="color-1"><stop offset="0" stop-color="#ffffff"></stop><stop offset="1" stop-color="#ffffff"></stop></linearGradient><linearGradient x1="32" y1="13" x2="32" y2="51" gradientUnits="userSpaceOnUse" id="color-2"><stop offset="0" stop-color="#ffffff"></stop><stop offset="1" stop-color="#ffffff"></stop></linearGradient></defs><g fill="none" fill-rule="nonzero" stroke="none" stroke-width="1" stroke-linecap="butt" stroke-linejoin="miter" stroke-miterlimit="10" stroke-dasharray="" stroke-dashoffset="0" font-family="none" font-weight="none" font-size="none" text-anchor="none" style="mix-blend-mode: normal"><g transform="scale(4,4)"><path d="M49,55h-34c-3.309,0 -6,-2.691 -6,-6v-34c0,-3.309 2.691,-6 6,-6h34c3.309,0 6,2.691 6,6v34c0,3.309 -2.691,6 -6,6zM15,11c-2.206,0 -4,1.794 -4,4v34c0,2.206 1.794,4 4,4h34c2.206,0 4,-1.794 4,-4v-34c0,-2.206 -1.794,-4 -4,-4z" fill="url(#color-1)"></path><path d="M26.978,22l14.108,20h-3.063l-14.109,-20zM51,15v34c0,1.1 -0.9,2 -2,2h-34c-1.1,0 -2,-0.9 -2,-2v-34c0,-1.1 0.9,-2 2,-2h34c1.1,0 2,0.9 2,2zM44.914,44l-10.125,-14.387l8.211,-9.613h-2.5l-6.841,8.009l-5.637,-8.009h-7.937l9.222,13.103l-9.307,10.897h2.5l7.937,-9.292l6.541,9.292z" fill="url(#color-2)"></path></g></g></svg>